# xmcd CD database file
#
# Track frame offsets:
#	150
#	19062
#	34137
#	49554
#	63405
#	78307
#	98750
#	114226
#	130651
#	151146
#	170551
#	191442
#	204081
#
# Disc length: 2960 seconds
#
# Revision: 1
# Processed by: cddbd v1.5.1PL2 Copyright (c) Steve Scherf et al.
# Submitted via: jack 3.1.1
#
DISCID=960b8e0d
DTITLE=Cooder Graw - Shifting Gears
DYEAR=1900
DGENRE=Country
TTITLE0=Shifting Gears
TTITLE1=New Dress
TTITLE2=King of the Dairy Queen
TTITLE3=Better Days
TTITLE4=God Only Knows
TTITLE5=Any Old girl
TTITLE6=Wicked Witch of the West
TTITLE7=This Hurt
TTITLE8=County Colors
TTITLE9=Legend of Millie Stacey
TTITLE10=Juniors in the Yard
TTITLE11=Willies Guitar
TTITLE12=Llano Estacado
EXTD=
EXTT0=
EXTT1=
EXTT2=
EXTT3=
EXTT4=
EXTT5=
EXTT6=
EXTT7=
EXTT8=
EXTT9=
EXTT10=
EXTT11=
EXTT12=
PLAYORDER=
